#!OML:ASF E:\CV Data\Top Level 1\Subject 1\Session 1\player.ASF
:FULLY-SPECIFIED
:DEGREES
1068
root 4.25573 16.0486 1.86587 14.8191 6.54992 -0.0197088
lowerback 21.8206 6.38275 16.39
upperback -0.462519 13.6824 8.89989
thorax -11.2843 5.66733 -2.98652
lowerneck -16.4351 -12.0702 -15.0645
upperneck 0.569413 -13.3801 5.15834
head 4.00008 -6.47181 2.68931
rclavicle 3.18055e-014 2.22639e-014
rhumerus 31.8209 352.238 332.471
rradius 33.5266
rwrist -12.2231
rhand 18.4874 10.2028
rfingers 7.12502
rthumb 43.1234 -13.9994
lclavicle 3.18055e-014 2.22639e-014
lhumerus -31.3024 -13.9529 95.7459
lradius 53.5738
lwrist -18.9763
lhand -20.7719 -2.28032
lfingers 7.12502
lthumb 5.59456 27.6258
rfemur -0.565442 -7.42915 19.1942
rtibia 68.8252
rfoot 1.37428 -13.6405
rtoes -14.5753
lfemur -54.4621 0.463503 -36.4007
ltibia 34.8372
lfoot 7.45358 -16.5232
ltoes 17.6644
1069
root 4.20059 16.1194 1.94823 15.3863 6.73232 -0.052009
lowerback 21.7999 6.54067 16.5771
upperback -0.245875 13.8842 8.96231
thorax -10.9611 5.78739 -3.03728
lowerneck -15.5121 -12.1977 -15.4027
upperneck -0.7194 -13.6282 5.13735
head 3.50003 -6.58242 2.78598
rclavicle -1.59028e-015 3.18055e-015
rhumerus 33.9809 370.46 342.229
rradius 37.6925
rwrist 3.51517
rhand -3.15911 9.00783
rfingers 7.12502
rthumb 22.5613 -19.6939
lclavicle -1.59028e-015 3.18055e-015
lhumerus -33.1157 -14.7523 95.7139
lradius 57.7899
lwrist -23.0415
lhand -21.912 -2.70947
lfingers 7.12502
lthumb 4.49376 27.2229
rfemur -1.29225 -7.42979 19.5845
rtibia 69.058
rfoot 0.927287 -15.0531
rtoes -11.3658
lfemur -54.2402 0.367969 -36.1419
ltibia 33.944
lfoot 7.64484 -16.579
ltoes 17.8256
1070
root 4.13416 16.1823 2.04074 15.9453 7.13008 -0.134357
lowerback 21.7133 6.5752 16.7837
upperback -0.12111 13.9337 9.00131
thorax -10.7216 5.82654 -3.08281
lowerneck -14.7184 -12.2396 -15.5616
upperneck -1.68234 -13.7888 5.1525
head 3.10891 -6.6506 2.86598
rclavicle -7.95139e-015 -3.18055e-014
rhumerus 39.7036 380.508 346.688
rradius 42.1961
rwrist 0.796615
rhand -10.1216 -0.83897
rfingers 7.12502
rthumb 15.8665 -30.2089
lclavicle -7.95139e-015 -3.18055e-014
lhumerus -35.0686 -15.15 95.4023
lradius 61.76
lwrist -26.277
lhand -23.0134 -3.04699
lfingers 7.12502
lthumb 3.43019 26.9052
rfemur -1.72906 -7.5884 20.1273
rtibia 68.9295
rfoot 0.666927 -16.2944
rtoes -8.15264
lfemur -54.1664 0.308455 -35.8964
ltibia 33.3951
lfoot 7.66031 -16.7822
ltoes 18.1153
1071
root 4.05622 16.2377 2.14093 16.488 7.74436 -0.179855
lowerback 21.5668 6.52423 16.9444
upperback -0.0717834 13.8542 8.95868
thorax -10.5439 5.79973 -3.16177
lowerneck -14.0991 -12.2916 -15.5433
upperneck -2.33756 -13.9748 5.33097
head 2.84617 -6.7307 2.95052
rclavicle 1.27222e-014 0
rhumerus 45.5164 386.302 347.153
rradius 44.4263
rwrist -6.05419
rhand -16.2773 -7.94972
rfingers 7.12502
rthumb 9.93259 -37.6954
lclavicle 1.27222e-014 0
lhumerus -37.004 -15.386 94.8383
lradius 65.3921
lwrist -28.3153
lhand -24.0022 -3.3225
lfingers 7.12502
lthumb 2.47521 26.6429
rfemur -1.88074 -7.93125 20.7061
rtibia 68.4554
rfoot 0.638646 -17.2939
rtoes -5.2516
lfemur -54.1478 0.364791 -35.8118
ltibia 33.0247
lfoot 7.56261 -17.2845
ltoes 18.5853
1072
root 3.96788 16.2865 2.24677 17.0006 8.55091 -0.139063
lowerback 21.3666 6.43465 17.0107
upperback -0.0634443 13.6873 8.82094
thorax -10.3918 5.73284 -3.27467
lowerneck -13.6045 -12.432 -15.4136
upperneck -2.83319 -14.2824 5.79226
head 2.68059 -6.86677 3.07939
rclavicle -2.70347e-014 -3.18055e-014
rhumerus 50.1665 390.145 344.33
rradius 45.2203
rwrist -16.1608
rhand -21.3876 -10.9439
rfingers 7.12502
rthumb 5.00013 -40.8649
lclavicle -2.70347e-014 -3.18055e-014
lhumerus -38.7866 -15.632 94.0927
lradius 68.6477
lwrist -28.93
lhand -24.8359 -3.61118
lfingers 7.12502
lthumb 1.67001 26.362
rfemur -1.76644 -8.44562 21.2411
rtibia 67.6949
rfoot 0.840455 -17.9876
rtoes -2.86214
lfemur -54.1414 0.55887 -35.9434
ltibia 32.7855
lfoot 7.36231 -18.1139
ltoes 19.2045
1073
root 3.87028 16.3298 2.35485 17.4759 9.52957 -0.00227594
lowerback 21.1442 6.35157 16.9607
upperback -0.0703556 13.4928 8.61741
thorax -10.2571 5.65664 -3.39567
lowerneck -13.0989 -12.7058 -15.2778
upperneck -3.39802 -14.772 6.59994
head 2.5413 -7.08592 3.29283
rclavicle -1.65389e-013 -4.77083e-014
rhumerus 53.0581 392.83 338.466
rradius 45.3463
rwrist -28.6128
rhand -23.4685 -11.444
rfingers 7.12502
rthumb 2.99062 -41.4028
lclavicle -1.65389e-013 -4.77083e-014
lhumerus -40.3239 -15.987 93.2785
lradius 71.5271
lwrist -28.0855
lhand -25.4065 -3.99816
lfingers 7.12502
lthumb 1.11894 25.9787
rfemur -1.43032 -9.1112 21.7093
rtibia 66.7086
rfoot 1.26593 -18.3544
rtoes -1.13805
lfemur -54.1207 0.846428 -36.2551
ltibia 32.6385
lfoot 7.10931 -19.2094
ltoes 19.9552
1074
root 3.76566 16.3688 2.46199 17.9052 10.6404 0.202013
lowerback 20.9367 6.31984 16.8044
upperback -0.0698103 13.3427 8.40191
thorax -10.1353 5.60598 -3.49034
lowerneck -12.4189 -13.115 -15.2331
upperneck -4.26082 -15.4475 7.74411
head 2.34601 -7.39269 3.61641
rclavicle -1.22451e-013 -5.725e-014
rhumerus 53.9153 394.622 329.907
rradius 44.9972
rwrist -40.2971
rhand -23.2387 -12.4718
rfingers 7.12502
rthumb 3.21256 -42.4274
lclavicle -1.22451e-013 -5.725e-014
lhumerus -41.5691 -16.4934 92.524
lradius 74.0713
lwrist -25.9191
lhand -25.6485 -4.49544
lfingers 7.12502
lthumb 0.885265 25.4825
rfemur -0.917184 -9.87466 22.1225
rtibia 65.5524
rfoot 1.88274 -18.396
rtoes -0.0754294
lfemur -54.0702 1.13898 -36.6376
ltibia 32.5572
lfoot 6.84007 -20.4355
ltoes 20.7044
1075
root 3.65744 16.4052 2.56735 18.2703 11.8423 0.426423
lowerback 20.7803 6.37906 16.5864
upperback -0.034594 13.3094 8.23451
thorax -10.0102 5.61548 -3.53313
lowerneck -11.5098 -13.6482 -15.3128
upperneck -5.53675 -16.2802 9.10046
head 2.04839 -7.78272 4.02888
rclavicle -5.725e-014 -1.27222e-013
rhumerus 53.0177 395.712 319.693
rradius 43.8783
rwrist -47.2903
rhand -22.9574 -14.0636
rfingers 7.12502
rthumb 3.48427 -44.0149
lclavicle -5.725e-014 -1.27222e-013
lhumerus -42.476 -17.1644 91.9371
lradius 76.3071
lwrist -22.7541
lhand -25.5258 -5.08303
lfingers 7.12502
lthumb 1.0037 24.8944
rfemur -0.268673 -10.6826 22.5033
rtibia 64.32
rfoot 2.60452 -18.1295
rtoes 0.451287
lfemur -54.0259 1.34155 -36.9584
ltibia 32.6519
lfoot 6.5109 -21.608
ltoes 21.371
1076
root 3.54968 16.4404 2.67058 18.5722 13.0734 0.611431
lowerback 20.6844 6.55321 16.3464
upperback 0.0443989 13.4398 8.16766
thorax -9.87567 5.70694 -3.4968
lowerneck -10.3855 -14.2606 -15.5357
upperneck -7.19205 -17.1957 10.5314
head 1.64921 -8.22857 4.50147
rclavicle -6.83819e-014 -7.95139e-014
rhumerus 51.1529 396.451 309.359
rradius 42.0666
rwrist -48.5918
rhand -23.262 -14.9529
rfingers 7.12502
rthumb 3.19006 -44.9088
lclavicle -6.83819e-014 -7.95139e-014
lhumerus -43.0631 -17.9427 91.5702
lradius 78.2756
lwrist -18.9902
lhand -25.0203 -5.62685
lfingers 7.12502
lthumb 1.49197 24.3477
rfemur 0.478895 -11.4647 22.8767
rtibia 63.0096
rfoot 3.39384 -17.5948
rtoes 0.65643
lfemur -53.9348 1.38067 -37.0926
ltibia 32.7811
lfoot 6.1881 -22.5898
ltoes 21.8477
1077
root 3.44321 16.4455 2.76467 18.8293 14.2794 0.711243
lowerback 20.6216 6.84962 16.1266
upperback 0.169318 13.7483 8.22079
thorax -9.71026 5.88759 -3.37942
lowerneck -9.11554 -14.904 -15.881
upperneck -9.11317 -18.1247 11.9238
head 1.17639 -8.69913 5.00215
rclavicle 1.90833e-014 -6.99722e-014
rhumerus 49.0746 397.183 300.161
rradius 39.6909
rwrist -44.9885
rhand -24.3826 -14.3773
rfingers 7.12502
rthumb 2.10782 -44.3467
lclavicle 1.90833e-014 -6.99722e-014
lhumerus -43.3475 -18.7551 91.4062
lradius 79.9856
lwrist -15.0448
lhand -24.239 -6.08548
lfingers 7.12502
lthumb 2.24658 23.8824
rfemur 1.24974 -12.1668 23.2713
rtibia 61.7616
rfoot 4.07496 -16.854
rtoes 0.711598
lfemur -53.9506 1.19756 -36.9902
ltibia 32.993
lfoot 5.9269 -23.2888
ltoes 22.07
1078
root 3.34736 16.4816 2.86466 19.0495 15.4055 0.708798
lowerback 20.5724 7.25583 15.9433
upperback 0.333436 14.2174 8.38373
thorax -9.51105 6.14839 -3.19345
lowerneck -7.79257 -15.5346 -16.2973
upperneck -11.1315 -19.0158 13.1927
head 0.674187 -9.16602 5.49667
rclavicle -3.02153e-014 -3.18055e-014
rhumerus 47.1752 398.103 292.629
rradius 36.8268
rwrist -37.7469
rhand -26.3621 -12.5793
rfingers 7.12502
rthumb 0.196027 -42.5589
lclavicle -3.02153e-014 -3.18055e-014
lhumerus -43.3855 -19.5162 91.3847
lradius 81.4479
lwrist -11.2886
lhand -23.2847 -6.36817
lfingers 7.12502
lthumb 3.16815 23.588
rfemur 2.04011 -12.7489 23.6369
rtibia 60.4256
rfoot 4.76283 -15.9581
rtoes 0.768231
lfemur -53.8371 0.846302 -36.6007
ltibia 33.1528
lfoot 5.5678 -23.6588
ltoes 22.0093
1079
root 3.26035 16.5185 2.96302 19.2682 16.4399 0.615312
lowerback 20.531 7.74148 15.7943
upperback 0.496282 14.8088 8.61425
thorax -9.31985 6.46528 -2.97735
lowerneck -6.51728 -16.1241 -16.6924
upperneck -13.0667 -19.8432 14.2704
head 0.187688 -9.61107 5.94384
rclavicle 1.11319e-014 -1.59028e-014
rhumerus 45.5039 399.19 286.589
rradius 33.5802
rwrist -28.1057
rhand -28.8025 -10.7282
rfingers 7.12502
rthumb -2.16097 -40.697
lclavicle 1.11319e-014 -1.59028e-014
lhumerus -43.2663 -20.1655 91.4203
lradius 82.6661
lwrist -8.04008
lhand -22.2925 -6.44731
lfingers 7.12502
lthumb 4.1263 23.4925
rfemur 2.77088 -13.2104 23.9722
rtibia 59.1517
rfoot 5.34956 -14.9888
rtoes 0.990797
lfemur -53.7548 0.335922 -35.997
ltibia 33.3008
lfoot 5.18969 -23.7489
ltoes 21.7061
1080
root 3.18195 16.5561 3.05931 19.5076 17.3921 0.463408
lowerback 20.4722 8.25393 15.653
upperback 0.637814 15.4411 8.86655
thorax -9.1522 6.79883 -2.74834
lowerneck -5.3557 -16.6419 -16.9759
upperneck -14.8067 -20.5741 15.1461
head -0.260387 -10.014 6.32264
rclavicle 4.92986e-014 4.45278e-014
rhumerus 44.0194 400.451 281.817
rradius 30.3981
rwrist -17.8846
rhand -31.0179 -9.67298
rfingers 7.12502
rthumb -4.30041 -39.6093
lclavicle 4.92986e-014 4.45278e-014
lhumerus -43.0607 -20.6021 91.4048
lradius 83.6418
lwrist -5.56627
lhand -21.4725 -6.42756
lfingers 7.12502
lthumb 4.9181 23.4954
rfemur 3.4291 -13.5813 24.2471
rtibia 57.9257
rfoot 5.81941 -14.0322
rtoes 1.17237
lfemur -53.6537 -0.286106 -35.2588
ltibia 33.2912
lfoot 4.88087 -23.6539
ltoes 21.248
1081
root 3.1106 16.5943 3.15333 19.7857 18.2936 0.292434
lowerback 20.3835 8.74974 15.4915
upperback 0.742408 16.0477 9.10102
thorax -9.02276 7.11677 -2.5215
lowerneck -4.36049 -17.0858 -17.1
upperneck -16.2895 -21.2021 15.8451
head -0.65237 -10.3697 6.62555
rclavicle -5.88403e-014 -9.22361e-014
rhumerus 42.7347 402.013 278.227
rradius 27.7678
rwrist -8.99469
rhand -32.2763 -9.19425
rfingers 7.12502
rthumb -5.51551 -39.1025
lclavicle -5.88403e-014 -9.22361e-014
lhumerus -42.827 -20.7754 91.2654
lradius 84.3902
lwrist -4.04608
lhand -20.9269 -6.37341
lfingers 7.12502
lthumb 5.44496 23.5366
rfemur 3.97541 -13.9093 24.4404
rtibia 56.8337
rfoot 6.14602 -13.145
rtoes 1.28765
lfemur -53.593 -0.965515 -34.4738
ltibia 33.2306
lfoot 4.59642 -23.4598
ltoes 20.7359
1082
root 3.04413 16.6326 3.2445 20.1055 19.1792 0.133
lowerback 20.2367 9.19439 15.281
upperback 0.817537 16.5691 9.30567
thorax -8.91701 7.39453 -2.27929
lowerneck -3.53373 -17.451 -17.0691
upperneck -17.5248 -21.7154 16.415
head -0.990558 -10.6714 6.86563
rclavicle 3.18055e-015 2.54444e-014
rhumerus 41.8613 404.214 276.019
rradius 26.0141
rwrist -2.80016
rhand -32.3967 -8.71633
rfingers 7.12502
rthumb -5.63173 -38.6215
lclavicle 3.18055e-015 2.54444e-014
lhumerus -42.6032 -20.6367 90.976
lradius 84.9449
lwrist -3.56076
lhand -20.7242 -6.27878
lfingers 7.12502
lthumb 5.64064 23.6261
rfemur 4.41093 -14.2386 24.5432
rtibia 55.89
rfoot 6.34141 -12.3718
rtoes 1.25971
lfemur -53.5629 -1.64627 -33.7155
ltibia 33.1071
lfoot 4.35759 -23.2762
ltoes 20.2616
